<svg id="Layer_1" data-name="Layer 1" xmlns="http://www.w3.org/2000/svg" xmlns:xlink="http://www.w3.org/1999/xlink" viewBox="0 0 118.98 131.04">
  <defs>
    <style>
      .cls-1 {
        fill: url(#linear-gradient);
      }

      .cls-2 {
        fill: url(#linear-gradient-2);
      }

      .cls-3 {
        fill: #cec33a;
      }

      .cls-4 {
        font-size: 36.172px;
        fill: #a729c1;
        font-family: Phosphate-Inline, Phosphate;
      }

      .cls-5 {
        fill: #efefed;
      }
    </style>
    <linearGradient id="linear-gradient" x1="-101.77" y1="26.98" x2="137.67" y2="26.98" gradientTransform="matrix(1, 0, 0, -1, -10, 136)" gradientUnits="userSpaceOnUse">
      <stop offset="0" stop-color="#0ca9b2"/>
      <stop offset="1" stop-color="#0d698f"/>
    </linearGradient>
    <linearGradient id="linear-gradient-2" x1="-429.47" y1="85.53" x2="670.86" y2="85.53" xlink:href="#linear-gradient"/>
  </defs>
  <title>icon-divi-audio</title>
  <path class="cls-1" d="M39.84,119.16l1.26-1.69,2.78.78.88-2-2.7-1.83.73-2h2.9l.29-2.13-3.12-1.07.16-2.07,2.8-.72-.32-2.13-3.3-.22-.43-2,2.5-1.42-.91-2-3.25.64-1-1.85,2-2-1.43-1.66-2.94,1.45L35.29,93.8l1.36-2.45L34.8,90.12l-2.43,2.16L30.52,91.2l.62-2.71L29,87.77l-1.7,2.71-2.09-.57-.16-2.77L22.8,87l-.9,3.05H19.74l-.94-2.62-2.2.45V91l-2.09.55L12.85,89.3l-2,1,.89,3.05L9.88,94.42,7.65,92.64,6,94.13l1.72,2.71L6.23,98.35,3.6,97.22,2.44,99.07l2.42,2.17-1,1.84L1,102.66l-.59,2.08,2.94,1.46-.45,2-2.88.35v2.15l3.24.65.14,2.07L.73,114.5l.62,2.07,3.31-.21.72,2-2.27,1.73,1.18,1.83,3.12-1.05,1.24,1.7-1.7,2.25,1.65,1.46,2.71-1.82,1.69,1.3-1,2.6,2,1,2.1-2.46,2,.83-.23,2.77,2.21.43,1.32-2.9,2.15.29.56,2.72,2.24-.16.46-3.14,2.15-.27,1.31,2.48,2.12-.73-.45-3.14,2-.82,2,2L37.68,126l-1.31-2.91,1.69-1.3,2.46,1.47,1.41-1.68ZM29.86,96a15.26,15.26,0,0,1,4,2.79l-3.71,3.08a10.59,10.59,0,0,0-16,2l-4.36-2.21A15.69,15.69,0,0,1,29.86,96ZM16.13,122.14a14.43,14.43,0,0,1-7.9-17l4.7,1.55a9.57,9.57,0,0,0-.27,2.27,10.14,10.14,0,0,0,10.05,10l.18,4.75A15.79,15.79,0,0,1,16.13,122.14Zm20.55-6.53a15.16,15.16,0,0,1-9.8,7.6l-.95-4.66A10,10,0,0,0,33.34,109a9.6,9.6,0,0,0-1.21-4.68l4.17-2.51a14.08,14.08,0,0,1,.38,13.81Z" transform="translate(-0.02)"/>
  <path class="cls-2" d="M110.89,45,118,41.87l-.58-4.36-8.45-.09-1.57-4.79,5.86-5-1.86-4L103.29,26l-2.94-4.11,4.11-6.51-3-3.27-7,4.62-4-3.07,2-7.42L88.64,4,83.3,10.47,78.54,8.71,78.24,1,73.92,0,70.76,7.74l-5.07-.29L63.11.21,58.69.47,58,8.8,53,10,48.4,3.83,44.26,5.37,46,13.54l-4.36,2.59-6.2-4.54-3.51,2.68,4.12,7.29L32.67,25.3l-7.32-2.51L22.8,26.36l6.11,5.76-2.13,4.57L19,36.42,17.67,40.6l7.56,3.71-.68,5-7.48,2L17,55.69,25.33,57l.84,5-6.55,4.1,1.23,4.21,8.36-1.15,2.28,4.49-5,5.83,2.44,3.67,7.65-3.54,3.51,3.63-3.09,7,3.42,2.8,6.26-5.61,4.44,2.44-.85,7.63,4.1,1.67L58.64,92l5,1,1.46,7.54,4.41.4,2-8.13,5-.46,3.64,6.78,4.33-.9L84,89.94,88.65,88l5.49,5.42L98,91.31l-3-7.82,3.91-3.2,6.87,3.57,3.07-3.17-5.18-6.6,2.79-4.2,7.61,1.41,2-3.92-6.92-4.79,1.42-4.84,7.7-.87.73-4.33L111,50ZM98.09,65.39A34,34,0,0,1,52.73,80.25,33.34,33.34,0,0,1,37.52,35.621q.074-.151.15-.3A34,34,0,0,1,83,20.41,33.34,33.34,0,0,1,98.252,65.025q-.08.163-.162.325Z" transform="translate(-0.02)"/>
  <g>
    <path class="cls-3" d="M97.035,57.177c-.411-1.2-.758-2.44-1.256-3.615s-1.148-2.291-1.76-3.49a2.288,2.288,0,0,0,.17-2.045,12.757,12.757,0,0,0-1.927-4.638.5.5,0,0,0-.056-.074c-1.563-1.407-2.533-3.293-3.8-4.937A32.313,32.313,0,0,0,77.58,29.211a1.111,1.111,0,0,0-1.245-.013.944.944,0,0,1-.968-.047A20.731,20.731,0,0,0,67.174,27.4a19.795,19.795,0,0,0-17.39,9.895,1,1,0,0,1-.894.595.894.894,0,0,0-.791.6,29.512,29.512,0,0,0-2.935,10.277,35.929,35.929,0,0,0,.01,7.032,9.444,9.444,0,0,1-.159,1.9,6.076,6.076,0,0,0,.245,2.678c.4,1.151.845,2.289,1.326,3.409a1.692,1.692,0,0,0,1.2,1.019,18.41,18.41,0,0,0,1.975,7.376,1.555,1.555,0,0,1-1.865-.849,22.534,22.534,0,0,1-1.211-2.763c-1.019-3-1.965-6.031-2.978-9.036a7.745,7.745,0,0,0-.972-2.042A7.52,7.52,0,0,1,41.377,53a41.992,41.992,0,0,1,1.063-9.51,34.883,34.883,0,0,1,2.4-7.173,1.041,1.041,0,0,0-.056-1.121.879.879,0,0,1,.042-.986,25.214,25.214,0,0,1,3.689-4.969,24.221,24.221,0,0,1,5.3-4.223,24.861,24.861,0,0,1,9.447-3.27,26.177,26.177,0,0,1,14.2,2.093.986.986,0,0,1,.674.9.945.945,0,0,0,.574.781,38.242,38.242,0,0,1,9.231,7.045,56.726,56.726,0,0,1,4.028,4.644A7.066,7.066,0,0,1,93.5,41.351a8.242,8.242,0,0,0,.576,2.457,107.555,107.555,0,0,1,3.657,10.861c.05.194.069.395.122.587A1.6,1.6,0,0,1,97.035,57.177ZM75.9,24.931a2.025,2.025,0,0,0-.418-.331c-.443-.188-.895-.351-1.348-.505A23.584,23.584,0,0,0,62,23.215a22.244,22.244,0,0,0-8.575,3.578,22.622,22.622,0,0,0-6.551,6.9,2.027,2.027,0,0,0-.125.559C54.172,24.281,63.825,21.217,75.9,24.931Z" transform="translate(-0.02)"/>
    <path class="cls-3" d="M54.844,68.3q-1.387-4.508-2.774-9.015c-.336-1.093.243-1.781,1.6-1.91a3.264,3.264,0,0,1,3.71,2.126q2.292,7.421,4.57,14.846a3.14,3.14,0,0,1-1.96,3.791c-1.171.542-2.038.257-2.359-.783Q56.235,72.831,54.844,68.3Zm5.377,9.091c-.194.055-.275.077-.356.1-.85.264-1.178.127-1.4-.6q-2.7-8.768-5.4-17.537c-.3-.963-.027-1.292,1.176-1.44.025,0,.048-.031.073-.048-1.385-.2-2.007.357-1.66,1.485,1.817,5.9,3.649,11.8,5.434,17.71C58.376,78.016,59.161,78.215,60.221,77.393Z" transform="translate(-0.02)"/>
    <path class="cls-3" d="M50.429,58.649c.573,1.646,1.13,3.3,1.693,4.945L53.5,67.637" transform="translate(-0.02)"/>
    <path class="cls-3" d="M51.55,68.53q-1.563-4.574-3.124-9.149" transform="translate(-0.02)"/>
    <path class="cls-3" d="M49.993,70.46a30.369,30.369,0,0,1-1.886-7.579" transform="translate(-0.02)"/>
    <path class="cls-3" d="M89.977,56.321c1.1,3.214,2.164,6.439,3.313,9.637.361,1-.222,1.971-1.641,2.143a3.546,3.546,0,0,1-4.005-2.108q-2.769-8.045-5.5-16.1a3.474,3.474,0,0,1,2.3-4.147,1.523,1.523,0,0,1,2.193.8Q88.313,51.431,89.977,56.321Zm-6.2-9.655.055.105a1.057,1.057,0,0,0,.146-.047c1.089-.535,1.539-.4,1.871.576l2.929,8.575q1.759,5.149,3.516,10.3c.225.659,0,1-.767,1.238-.122.037-.244.077-.365.116a1.378,1.378,0,0,0,.649.012c.833-.146,1.156-.581.954-1.276-.039-.134-.087-.266-.132-.4q-3.223-9.437-6.449-18.873c-.065-.19-.1-.437-.259-.539a1.462,1.462,0,0,0-.9-.312A5.616,5.616,0,0,0,83.776,46.666Z" transform="translate(-0.02)"/>
    <path class="cls-3" d="M90.691,56.076q-1.253-3.67-2.505-7.341a1.42,1.42,0,0,1,.947-1.864,1.581,1.581,0,0,1,2.1.733c.121.287.207.588.307.882L96.325,62.5a1.506,1.506,0,0,1-1.059,1.919,1.563,1.563,0,0,1-2.035-.917c-.853-2.474-1.694-4.951-2.54-7.428" transform="translate(-0.02)"/>
    <path class="cls-3" d="M94.781,52.458a12.551,12.551,0,0,1,1.731,6.427" transform="translate(-0.02)"/>
    <path class="cls-3" d="M50.387,68.9q-1.253-3.67-2.505-7.341a1.42,1.42,0,0,1,.947-1.864,1.581,1.581,0,0,1,2.1.733c.121.287.207.588.307.882l4.789,14.016a1.506,1.506,0,0,1-1.059,1.919,1.563,1.563,0,0,1-2.035-.917c-.853-2.474-1.694-4.951-2.54-7.428" transform="translate(-0.02)"/>
  </g>
  <text class="cls-4" transform="translate(58.082 63.488) scale(1.047 1)">D</text>
  <path class="cls-5" d="M56.84,55.929c1.958,0,1.958,0,1.779-1.884a1.321,1.321,0,0,0-.125-.211c-1.611,0-3.252-.02-4.891.025" transform="translate(-0.02)"/>
  <path class="cls-5" d="M53.753,50.015c1.035-.032,2.071-.006,3.107-.005,1.916,0,1.916,0,1.729-2h-4.3" transform="translate(-0.02)"/>
  <path class="cls-5" d="M53.636,52.928c1.116-.025,2.232-.006,3.349-.006,1.859,0,1.884-.029,1.564-1.98-1.712,0-3.384-.045-5.052.019" transform="translate(-0.02)"/>
  <path class="cls-5" d="M53.577,47.029c1.114-.006,2.228,0,3.342,0,1.927,0,1.927,0,1.646-2.009-1.713,0-3.38-.024-5.045.01" transform="translate(-0.02)"/>
  <path class="cls-5" d="M53.6,53.86c1.639-.045,3.28-.025,4.891-.025a1.321,1.321,0,0,1,.125.211c.179,1.884.179,1.884-1.779,1.884" transform="translate(-0.02)"/>
  <path class="cls-5" d="M54.293,48.007h4.3c.187,2,.187,2-1.729,2-1.036,0-2.072-.027-3.107.005" transform="translate(-0.02)"/>
  <path class="cls-5" d="M53.5,50.961c1.667-.064,3.339-.019,5.052-.019.319,1.951.295,1.98-1.564,1.98-1.116,0-2.233-.019-3.349.006" transform="translate(-0.02)"/>
  <path class="cls-5" d="M53.52,45.029c1.666-.033,3.333-.01,5.045-.01.282,2.007.282,2.008-1.646,2.009-1.114,0-2.228,0-3.342,0" transform="translate(-0.02)"/>
</svg>
